<svg width="18" height="22" viewBox="0 0 18 22" fill="none" xmlns="http://www.w3.org/2000/svg">
<path d="M4.875 10.25L9 3.5L13.125 10.25H4.875ZM13.125 18.5C12.1875 18.5 11.3906 18.1719 10.7344 17.5156C10.0781 16.8594 9.75 16.0625 9.75 15.125C9.75 14.1875 10.0781 13.3906 10.7344 12.7344C11.3906 12.0781 12.1875 11.75 13.125 11.75C14.0625 11.75 14.8594 12.0781 15.5156 12.7344C16.1719 13.3906 16.5 14.1875 16.5 15.125C16.5 16.0625 16.1719 16.8594 15.5156 17.5156C14.8594 18.1719 14.0625 18.5 13.125 18.5ZM2.25 18.125V12.125H8.25V18.125H2.25ZM13.125 17C13.65 17 14.0938 16.8187 14.4563 16.4562C14.8188 16.0938 15 15.65 15 15.125C15 14.6 14.8188 14.1562 14.4563 13.7937C14.0938 13.4312 13.65 13.25 13.125 13.25C12.6 13.25 12.1562 13.4312 11.7938 13.7937C11.4313 14.1562 11.25 14.6 11.25 15.125C11.25 15.65 11.4313 16.0938 11.7938 16.4562C12.1562 16.8187 12.6 17 13.125 17ZM3.75 16.625H6.75V13.625H3.75V16.625ZM7.5375 8.75H10.4625L9 6.3875L7.5375 8.75Z" fill="black"/>
</svg>
