<svg width="20" height="24" viewBox="0 0 20 24" fill="none" xmlns="http://www.w3.org/2000/svg">
<path d="M9.16669 16.1667H10.8334V12.8334H14.1667V11.1667H10.8334V7.83337H9.16669V11.1667H5.83335V12.8334H9.16669V16.1667ZM10 20.3334C8.84724 20.3334 7.76391 20.1146 6.75002 19.6771C5.73613 19.2396 4.85419 18.6459 4.10419 17.8959C3.35419 17.1459 2.76044 16.2639 2.32294 15.25C1.88544 14.2362 1.66669 13.1528 1.66669 12C1.66669 10.8473 1.88544 9.76393 2.32294 8.75004C2.76044 7.73615 3.35419 6.85421 4.10419 6.10421C4.85419 5.35421 5.73613 4.76046 6.75002 4.32296C7.76391 3.88546 8.84724 3.66671 10 3.66671C11.1528 3.66671 12.2361 3.88546 13.25 4.32296C14.2639 4.76046 15.1459 5.35421 15.8959 6.10421C16.6459 6.85421 17.2396 7.73615 17.6771 8.75004C18.1146 9.76393 18.3334 10.8473 18.3334 12C18.3334 13.1528 18.1146 14.2362 17.6771 15.25C17.2396 16.2639 16.6459 17.1459 15.8959 17.8959C15.1459 18.6459 14.2639 19.2396 13.25 19.6771C12.2361 20.1146 11.1528 20.3334 10 20.3334ZM10 18.6667C11.8611 18.6667 13.4375 18.0209 14.7292 16.7292C16.0209 15.4375 16.6667 13.8612 16.6667 12C16.6667 10.1389 16.0209 8.56254 14.7292 7.27087C13.4375 5.97921 11.8611 5.33337 10 5.33337C8.13891 5.33337 6.56252 5.97921 5.27085 7.27087C3.97919 8.56254 3.33335 10.1389 3.33335 12C3.33335 13.8612 3.97919 15.4375 5.27085 16.7292C6.56252 18.0209 8.13891 18.6667 10 18.6667Z" fill="white"/>
</svg>
