<svg width="18" height="22" viewBox="0 0 18 22" fill="none" xmlns="http://www.w3.org/2000/svg">
<path d="M9 11C8.175 11 7.46875 10.7062 6.88125 10.1187C6.29375 9.53125 6 8.825 6 8C6 7.175 6.29375 6.46875 6.88125 5.88125C7.46875 5.29375 8.175 5 9 5C9.825 5 10.5313 5.29375 11.1188 5.88125C11.7063 6.46875 12 7.175 12 8C12 8.825 11.7063 9.53125 11.1188 10.1187C10.5313 10.7062 9.825 11 9 11ZM3 17V14.9C3 14.475 3.10938 14.0844 3.32812 13.7281C3.54688 13.3719 3.8375 13.1 4.2 12.9125C4.975 12.525 5.7625 12.2344 6.5625 12.0406C7.3625 11.8469 8.175 11.75 9 11.75C9.825 11.75 10.6375 11.8469 11.4375 12.0406C12.2375 12.2344 13.025 12.525 13.8 12.9125C14.1625 13.1 14.4531 13.3719 14.6719 13.7281C14.8906 14.0844 15 14.475 15 14.9V17H3ZM4.5 15.5H13.5V14.9C13.5 14.7625 13.4656 14.6375 13.3969 14.525C13.3281 14.4125 13.2375 14.325 13.125 14.2625C12.45 13.925 11.7688 13.6719 11.0813 13.5031C10.3938 13.3344 9.7 13.25 9 13.25C8.3 13.25 7.60625 13.3344 6.91875 13.5031C6.23125 13.6719 5.55 13.925 4.875 14.2625C4.7625 14.325 4.67188 14.4125 4.60313 14.525C4.53438 14.6375 4.5 14.7625 4.5 14.9V15.5ZM9 9.5C9.4125 9.5 9.76563 9.35312 10.0594 9.05937C10.3531 8.76562 10.5 8.4125 10.5 8C10.5 7.5875 10.3531 7.23438 10.0594 6.94062C9.76563 6.64687 9.4125 6.5 9 6.5C8.5875 6.5 8.23438 6.64687 7.94063 6.94062C7.64688 7.23438 7.5 7.5875 7.5 8C7.5 8.4125 7.64688 8.76562 7.94063 9.05937C8.23438 9.35312 8.5875 9.5 9 9.5Z" fill="black"/>
</svg>
